<?xml version="1.0" encoding="UTF-8" standalone="no"?><!DOCTYPE svg PUBLIC "-//W3C//DTD SVG 1.1//EN" "http://www.w3.org/Graphics/SVG/1.1/DTD/svg11.dtd"><svg width="100%" height="100%" viewBox="0 0 657 133" version="1.1" xmlns="http://www.w3.org/2000/svg" xmlns:xlink="http://www.w3.org/1999/xlink" xml:space="preserve" style="fill-rule:evenodd;clip-rule:evenodd;stroke-linejoin:round;stroke-miterlimit:1.41421;"><g id="animista.-logo.-white"><path id="letter.-7" d="M628.72,117.383c0.553,9.402 6.262,15.117 16.207,15.117c8.656,0 10.586,-3.724 11.573,-4.736c0,0 -1.523,1.788 -8.258,1.622c-3.866,-0.095 -4.972,-3.707 -4.972,-9.053l0,-48.115c0,-16.039 -9.024,-25.256 -31.309,-25.256c-19.338,0 -29.836,6.821 -29.836,16.96c0,7.374 5.71,11.983 13.997,11.983c3.868,0 7.749,-3.009 7.749,-3.009c-7.516,-0.439 -11.224,-3.443 -11.224,-9.527c0,-9.77 8.08,-14.01 19.314,-14.01c12.155,0 15.102,5.899 15.102,16.775l0,19.357l-1.842,0c-22.284,0 -47.516,6.452 -47.516,26.362c0,15.301 13.076,20.647 24.863,20.647c13.629,0 22.101,-7.927 25.784,-15.117l0.368,0Zm-1.657,-5.53c0,4.24 -4.052,9.586 -9.209,13.273c-3.683,2.581 -7.919,4.24 -11.971,4.24c-6.814,0 -10.682,-4.977 -10.682,-17.144c0,-10.14 3.316,-16.407 9.393,-19.91c4.789,-2.765 11.235,-4.056 19.154,-4.056l3.315,0l0,23.597Z" style="fill:#fff;"/><path id="letter.-6" d="M451.973,132.31c3.194,-4.04 7.185,-3.953 12.69,-2.584c6.18,1.536 12.448,2.584 18.595,2.584c18.049,0 29.099,-11.246 29.099,-25.994c0,-33.182 -53.409,-20.094 -53.409,-41.478c0,-10.508 10.129,-15.301 21.916,-15.301c2.762,0 5.525,0.184 7.919,0.553c2.026,8.849 6.446,16.96 13.997,16.96c4.604,0 6.999,-2.95 6.999,-6.083c0,-5.347 -6.999,-11.061 -18.602,-13.274c-0.552,-3.134 -0.736,-6.267 -0.736,-9.217c0,-14.932 5.709,-35.211 31.493,-35.211c21.179,0 25.231,14.379 25.231,24.519c0,13.457 -7.551,20.278 -19.338,20.278l-5.893,0l0,2.765l12.339,0l0,57.517c0,14.011 3.87,25.808 21.364,23.966c5.195,-0.548 9.408,-4.808 9.722,-5.577c0,0 -3.482,2.123 -7.895,2.379c-7.105,0.411 -6.984,-6.02 -6.984,-16.159l0,-62.126l21.548,0l0,-2.765l-21.548,0l0,-19.172c0,-12.905 -4.972,-28.39 -28.546,-28.39c-26.521,0 -34.44,20.278 -34.44,37.976c0,2.765 0.184,5.715 0.737,8.849c-2.395,-0.369 -4.973,-0.553 -7.551,-0.553c-12.524,0 -28.915,5.714 -28.915,24.702c0,34.289 53.041,20.832 53.041,42.401c0,10.323 -9.761,15.669 -21.364,15.669c-17.128,0 -24.805,-4.492 -27.849,-19.308l-0.684,-3.572l-0.106,0.002c0,0 -0.269,19.226 -2.958,25.644l0.128,0Zm39.941,-81.667c9.393,2.028 14.918,6.637 14.918,10.508c0,1.843 -1.105,3.318 -4.052,3.318c-5.709,0 -9.208,-6.452 -10.866,-13.826l0,0Z" style="fill:#fff;"/><path id="letter.-5" d="M399.911,132.021l41.991,0l0,-2.765l-12.892,0l0,-80.192l-29.099,0l0,2.765l12.892,0l0,77.427l-12.892,0l0,2.765Zm9.761,-120.757c0,5.347 4.604,9.955 9.945,9.955c5.341,0 9.945,-4.608 9.945,-9.955c0,-5.346 -4.604,-9.954 -9.945,-9.954c-5.341,0 -9.945,4.608 -9.945,9.954l0,0Z" style="fill:#fff;"/><path id="letter.-4" d="M238.472,132.021l40.701,0l0,-2.765l-11.602,0l0,-46.825c0,-9.586 6.63,-31.339 26.889,-31.339c9.945,0 13.076,4.793 13.076,18.619l0,59.545l-11.603,0l0,2.765l39.412,0l0,-2.765l-11.602,0l0,-47.562c0.368,-9.955 6.998,-30.602 26.889,-30.602c9.945,0 13.076,4.793 13.076,18.619l0,59.545l-11.603,0l0,2.765l40.701,0l0,-2.765l-12.891,0l0,-56.227c0,-17.513 -8.288,-25.255 -26.521,-25.255c-24.126,0 -29.651,20.647 -29.651,20.647l-0.369,0c-1.289,-14.195 -9.577,-20.647 -26.152,-20.647c-24.126,0 -29.651,20.647 -29.651,20.647l-0.369,0l0,-19.357l-28.73,0l0,2.765l12.892,0l0,77.427l-12.892,0l0,2.765Z" style="fill:#fff;"/><path id="letter.-3" d="M189.114,132.021l41.991,0l0,-2.765l-12.892,0l0,-80.192l-29.099,0l0,2.765l12.892,0l0,77.427l-12.892,0l0,2.765Zm9.761,-120.757c0,5.347 4.605,9.955 9.945,9.955c5.341,0 9.946,-4.608 9.946,-9.955c0,-5.346 -4.605,-9.954 -9.946,-9.954c-5.34,0 -9.945,4.608 -9.945,9.954l0,0Z" style="fill:#fff;"/><path id="letter.-2" d="M84.69,132.021l40.701,0l0,-2.765l-11.602,0l0,-46.825c0,-5.162 1.841,-13.826 6.63,-20.647c4.236,-6.083 11.234,-10.692 20.259,-10.692c9.945,0 13.076,4.793 13.076,18.619l0,59.545l-11.603,0l0,2.765l40.701,0l0,-2.765l-12.891,0l0,-56.227c0,-17.513 -8.288,-25.255 -26.521,-25.255c-24.126,0 -29.651,21.015 -29.651,21.015l-0.369,0l0,-19.725l-28.73,0l0,2.68l12.892,0.085l0,77.427l-12.892,0l0,2.765Z" style="fill:#fff;"/><path id="letter.-1" d="M51.515,117.193c0.553,9.402 6.262,15.117 16.207,15.117c8.656,0 10.586,-3.724 11.573,-4.737c0,0 -1.523,1.788 -8.258,1.623c-3.866,-0.096 -4.972,-3.707 -4.972,-9.053l0,-48.116c0,-16.038 -9.025,-25.255 -31.309,-25.255c-19.338,0 -29.836,6.821 -29.836,16.96c0,7.374 5.709,11.982 13.997,11.982c3.868,0 7.749,-3.009 7.749,-3.009c-7.516,-0.439 -11.224,-3.443 -11.224,-9.526c0,-9.771 8.079,-14.011 19.314,-14.011c12.155,0 15.102,5.899 15.102,16.776l0,19.357l-1.842,0c-22.285,0 -47.516,6.452 -47.516,26.362c0,15.3 13.076,20.647 24.863,20.647c13.629,0 22.1,-7.927 25.784,-15.117l0.368,0Zm-1.657,-5.53c0,4.24 -4.052,9.586 -9.209,13.273c-3.683,2.581 -7.919,4.24 -11.971,4.24c-6.814,0 -10.682,-4.978 -10.682,-17.145c0,-10.139 3.315,-16.407 9.393,-19.909c4.788,-2.766 11.234,-4.056 19.154,-4.056l3.315,0l0,23.597Z" style="fill:#fff;"/></g></svg>