<?xml version="1.0" encoding="UTF-8" standalone="no"?><!DOCTYPE svg PUBLIC "-//W3C//DTD SVG 1.1//EN" "http://www.w3.org/Graphics/SVG/1.1/DTD/svg11.dtd"><svg width="100%" height="100%" viewBox="0 0 57 51" version="1.1" xmlns="http://www.w3.org/2000/svg" xmlns:xlink="http://www.w3.org/1999/xlink" xml:space="preserve" style="fill-rule:evenodd;clip-rule:evenodd;stroke-linejoin:round;stroke-miterlimit:1.41421;"><path d="M33.952,1.614c-3.589,-0.819 -7.315,-0.819 -10.904,0l0,6.448c-1.698,0.531 -3.309,1.307 -4.783,2.303l-5.041,-4.02c-2.877,2.295 -5.201,5.209 -6.798,8.525l5.041,4.02c-0.644,1.658 -1.041,3.402 -1.181,5.175l-6.286,1.435c0,3.681 0.829,7.314 2.426,10.63l6.286,-1.435c0.895,1.538 2.01,2.936 3.31,4.151l-2.798,5.809c2.878,2.295 6.236,3.912 9.824,4.731l2.798,-5.809c1.76,0.258 3.548,0.258 5.308,0l2.798,5.809c3.588,-0.819 6.946,-2.436 9.824,-4.731l-2.798,-5.809c1.3,-1.215 2.415,-2.613 3.31,-4.151l6.286,1.435c1.597,-3.316 2.426,-6.949 2.426,-10.63l-6.286,-1.435c-0.14,-1.773 -0.537,-3.517 -1.181,-5.175l5.041,-4.02c-1.597,-3.316 -3.921,-6.23 -6.798,-8.525l-5.041,4.02c-1.474,-0.996 -3.085,-1.772 -4.783,-2.303l0,-6.448Zm-5.452,16.268c4.204,0 7.618,3.414 7.618,7.618c0,4.204 -3.414,7.618 -7.618,7.618c-4.204,0 -7.618,-3.414 -7.618,-7.618c0,-4.204 3.414,-7.618 7.618,-7.618Z" style="fill:#404040;"/></svg>