<?xml version="1.0" encoding="UTF-8" standalone="no"?><!DOCTYPE svg PUBLIC "-//W3C//DTD SVG 1.1//EN" "http://www.w3.org/Graphics/SVG/1.1/DTD/svg11.dtd"><svg width="100%" height="100%" viewBox="0 0 62 50" version="1.1" xmlns="http://www.w3.org/2000/svg" xmlns:xlink="http://www.w3.org/1999/xlink" xml:space="preserve" style="fill-rule:evenodd;clip-rule:evenodd;stroke-linejoin:round;stroke-miterlimit:1.41421;"><rect id="Artboard1" x="0" y="0.934" width="62" height="49" style="fill:none;"/><g><g><path d="M1,27.403c1.453,0.038 2.544,0.734 3.271,2.086c0.709,1.297 1.064,2.952 1.064,4.963l0,8.148c0.035,1.992 0.599,3.543 1.689,4.652c1.036,1.128 2.3,1.71 3.789,1.748l4.744,0l0,-3.806l-2.726,0c-0.891,-0.037 -1.526,-0.564 -1.908,-1.579c-0.364,-0.921 -0.545,-1.992 -0.545,-3.214l0,-7.387c0,-1.354 -0.173,-2.491 -0.519,-3.412c-0.327,-0.921 -0.754,-1.672 -1.281,-2.256c-0.436,-0.582 -0.9,-1.024 -1.39,-1.324c-0.491,-0.263 -0.881,-0.423 -1.172,-0.48l0,-0.113c0.636,-0.15 1.49,-0.798 2.562,-1.945c0.527,-0.582 0.954,-1.335 1.281,-2.255c0.346,-0.846 0.519,-1.908 0.519,-3.186l0,-7.444c0,-1.278 0.181,-2.396 0.545,-3.355c0.382,-0.921 1.017,-1.4 1.908,-1.437l2.726,0l0,-3.807l-4.744,0c-1.489,0 -2.753,0.555 -3.789,1.664c-1.09,1.128 -1.654,2.706 -1.689,4.736l0,8.261c0,1.88 -0.355,3.496 -1.064,4.85c-0.327,0.657 -0.773,1.156 -1.336,1.493c-0.545,0.396 -1.19,0.593 -1.935,0.593l0,3.806Z" style="fill:#3e3e3e;fill-rule:nonzero;"/><path d="M61,27.403c-1.453,0.038 -2.544,0.734 -3.271,2.086c-0.709,1.297 -1.064,2.952 -1.064,4.963l0,8.148c-0.035,1.992 -0.599,3.543 -1.689,4.652c-1.036,1.128 -2.3,1.71 -3.789,1.748l-4.744,0l0,-3.806l2.726,0c0.891,-0.037 1.526,-0.564 1.908,-1.579c0.364,-0.921 0.545,-1.992 0.545,-3.214l0,-7.387c0,-1.354 0.173,-2.491 0.519,-3.412c0.327,-0.921 0.754,-1.672 1.281,-2.256c0.436,-0.582 0.9,-1.024 1.39,-1.324c0.491,-0.263 0.881,-0.423 1.172,-0.48l0,-0.113c-0.636,-0.15 -1.49,-0.798 -2.562,-1.945c-0.527,-0.582 -0.954,-1.335 -1.281,-2.255c-0.346,-0.846 -0.519,-1.908 -0.519,-3.186l0,-7.444c0,-1.278 -0.181,-2.396 -0.545,-3.355c-0.382,-0.921 -1.017,-1.4 -1.908,-1.437l-2.726,0l0,-3.807l4.744,0c1.489,0 2.753,0.555 3.789,1.664c1.09,1.128 1.654,2.706 1.689,4.736l0,8.261c0,1.88 0.355,3.496 1.064,4.85c0.327,0.657 0.773,1.156 1.336,1.493c0.545,0.396 1.19,0.593 1.935,0.593l0,3.806Z" style="fill:#3e3e3e;fill-rule:nonzero;"/><ellipse cx="31" cy="25.343" rx="5.053" ry="5" style="fill:#3e3e3e;"/></g></g></svg>