<svg xmlns="http://www.w3.org/2000/svg" width="512" height="512" viewBox="0 0 512 512"><path d="M459.186 151.787c.203 4.5.305 9.023.305 13.565 0 138.542-105.46 298.285-298.273 298.285-59.21 0-114.322-17.357-160.716-47.104 8.213.973 16.547 1.47 25.013 1.47 49.12 0 94.318-16.76 130.21-44.884-45.888-.842-84.597-31.155-97.94-72.805 6.41 1.227 12.97 1.886 19.73 1.886 9.55 0 18.817-1.286 27.618-3.68-47.954-9.632-84.1-52-84.1-102.794 0-.446 0-.882.012-1.318 14.133 7.847 30.294 12.562 47.488 13.11-28.134-18.797-46.637-50.886-46.637-87.263 0-19.212 5.16-37.218 14.193-52.7C87.793 130.98 165.026 172.71 252.158 177.09c-1.784-7.674-2.718-15.673-2.718-23.895 0-57.89 46.94-104.832 104.832-104.832 30.173 0 57.404 12.734 76.525 33.102 23.887-4.694 46.313-13.423 66.57-25.438-7.828 24.485-24.435 45.025-46.09 58.002 21.21-2.536 41.426-8.172 60.222-16.506-14.052 21.018-31.834 39.48-52.314 54.263z" fill="#ffffff"/></svg>