<svg xmlns="http://www.w3.org/2000/svg" width="512" height="512" viewBox="0 0 512 512"><path d="M245.27 24.703c4.218 2.607 8.946 6.438 14.21 11.453 5.053 5.24 10.018 11.677 14.87 19.312 4.617 7.21 8.747 15.72 12.34 25.538 2.944 9.818 4.416 21.27 4.416 34.37-.4 24.003-5.7 43.216-15.906 57.612-5.003 6.986-10.292 13.424-15.894 19.325-6.2 5.9-12.788 11.89-19.787 18.002-4.018 4.142-7.724 8.833-11.105 14.085-4.017 5.452-6 11.79-6 18.976 0 6.998 2.046 12.774 6.15 17.354 3.48 4.38 6.887 8.184 10.155 11.465l22.768 18.65c14.147 11.578 26.56 24.34 37.228 38.314 10.055 14.17 15.27 32.734 15.693 55.652 0 32.512-14.372 61.317-43.08 86.418-29.79 25.962-72.756 39.398-128.91 40.27-47.007-.448-82.1-10.466-105.28-30.065-23.404-18.302-35.106-40.196-35.106-65.67 0-12.427 3.805-26.263 11.428-41.508 7.373-15.258 20.76-28.656 40.11-40.184 21.72-12.426 44.587-20.71 68.49-24.852 23.678-3.467 43.353-5.438 59.022-5.875-4.84-6.35-9.157-13.16-12.938-20.41-4.416-7.023-6.637-15.457-6.637-25.338 0-5.938.847-10.866 2.53-14.82 1.473-4.167 2.858-8.01 4.105-11.503-7.623.873-14.82 1.31-21.57 1.31-35.717-.437-62.952-11.677-81.69-33.72-19.6-20.51-29.405-44.4-29.405-71.686 0-32.96 13.885-62.852 41.656-89.7 19.088-15.694 38.924-25.96 59.51-30.765C156.993 2.57 176.08.5 193.883.5H328.11L286.65 24.703h-41.38zm25.914 386.33c0-17.028-5.553-31.874-16.668-44.524-11.752-12.003-30.116-26.736-55.117-44.202-4.28-.437-9.308-.66-15.07-.66-3.42-.45-12.165 0-26.287 1.32-13.898 1.947-28.095 5.116-42.63 9.482-3.417 1.322-8.233 3.27-14.42 5.914-6.2 2.82-12.5 6.86-18.913 12.1-6.2 5.453-11.428 12.228-15.707 20.312-4.915 8.51-7.385 18.764-7.385 30.777 0 23.566 10.69 42.98 32.075 58.273 20.298 15.282 48.068 23.13 83.324 23.58 31.625-.45 55.778-7.424 72.446-20.96 16.253-13.324 24.35-30.453 24.35-51.412zm-93.556-196.726c17.653-.66 32.387-7 44.15-19.025 5.677-8.533 9.32-17.28 10.955-26.26.985-8.96 1.484-16.494 1.484-22.62 0-26.46-6.774-53.145-20.323-80.055-6.35-12.9-14.684-23.392-25.063-31.476-10.566-7.646-22.717-11.7-36.502-12.138-18.165.437-33.297 7.76-45.35 21.982-10.166 14.87-15.032 31.488-14.582 49.852 0 24.277 7.1 49.528 21.296 75.777 6.886 12.25 15.77 22.63 26.635 31.164 10.866 8.533 23.317 12.8 37.3 12.8zM509.965 73.794H439.53V3.37h-34.122v70.424H334.97v34.12h70.438v70.438h34.12v-70.437h70.437v-34.12z" fill="#ffffff"/></svg>