<?xml version="1.0" encoding="UTF-8" standalone="no"?><!DOCTYPE svg PUBLIC "-//W3C//DTD SVG 1.1//EN" "http://www.w3.org/Graphics/SVG/1.1/DTD/svg11.dtd"><svg width="100%" height="100%" viewBox="0 0 55 50" version="1.1" xmlns="http://www.w3.org/2000/svg" xmlns:xlink="http://www.w3.org/1999/xlink" xml:space="preserve" style="fill-rule:evenodd;clip-rule:evenodd;stroke-linejoin:round;stroke-miterlimit:1.41421;"><rect id="Artboard1" x="0" y="0" width="56" height="50" style="fill:none;"/><path d="M39.228,1.261l0.191,0.004l0.192,0.006l0.191,0.008l0.192,0.01l0.191,0.013l0.19,0.016l0.191,0.016l0.189,0.019l0.19,0.021l0.189,0.025l0.189,0.025l0.188,0.027l0.189,0.029l0.187,0.033l0.187,0.033l0.187,0.036l0.186,0.038l0.185,0.04l0.186,0.042l0.184,0.044l0.184,0.047l0.183,0.047l0.183,0.051l0.183,0.051l0.181,0.055l0.181,0.056l0.179,0.058l0.18,0.06l0.178,0.062l0.178,0.063l0.177,0.066l0.177,0.068l0.175,0.069l0.175,0.072l0.173,0.074l0.173,0.075l0.172,0.078l0.171,0.078l0.17,0.081l0.17,0.083l0.168,0.084l0.167,0.087l0.167,0.088l0.164,0.09l0.165,0.092l0.163,0.094l0.162,0.095l0.161,0.097l0.16,0.099l0.159,0.101l0.157,0.103l0.157,0.104l0.155,0.107l0.154,0.107l0.153,0.109l0.151,0.111l0.151,0.113l0.148,0.115l0.148,0.116l0.147,0.118l0.145,0.119l0.144,0.122l0.141,0.123l0.142,0.124l0.139,0.126l0.138,0.128l0.137,0.13l0.135,0.13l0.133,0.132l0.133,0.135l0.13,0.135l0.129,0.138l0.128,0.138l0.125,0.141l0.124,0.142l0.123,0.144l0.121,0.144l0.119,0.147l0.118,0.148l0.116,0.149l0.114,0.151l0.112,0.152l0.111,0.154l0.108,0.156l0.108,0.157l0.105,0.158l0.104,0.16l0.101,0.161l0.1,0.162l0.098,0.164l0.095,0.165l0.094,0.167l0.092,0.168l0.091,0.169l0.087,0.171l0.086,0.172l0.084,0.174l0.082,0.175l0.08,0.176l0.077,0.178l0.076,0.178l0.074,0.18l0.072,0.182l0.069,0.182l0.066,0.183l0.065,0.186l0.063,0.187l0.061,0.188l0.058,0.188l0.056,0.19l0.053,0.192l0.051,0.192l0.049,0.194l0.047,0.195l0.044,0.196l0.042,0.197l0.04,0.198l0.037,0.199l0.034,0.202l0.031,0.202l0.03,0.202l0.027,0.204l0.025,0.205l0.022,0.207l0.019,0.208l0.017,0.208l0.014,0.209l0.012,0.212l0.009,0.211l0.007,0.212l0.003,0.215l0.001,0.214l-0.002,0.216l-0.004,0.217l-0.007,0.218l-0.01,0.218l-0.013,0.221l-0.016,0.22l-0.018,0.222l-0.022,0.223l-0.024,0.223l-0.027,0.225l-0.03,0.225l-0.032,0.227l-0.036,0.227l-0.039,0.228l-0.042,0.23l-0.045,0.229l-0.048,0.232l-0.05,0.231l-0.054,0.233l-0.057,0.233l-0.06,0.235l-0.063,0.236l-0.067,0.235l-0.069,0.237l-0.073,0.237l-0.075,0.239l-0.079,0.239l-0.083,0.24l-0.085,0.242l-0.088,0.24l-0.093,0.243l-0.095,0.242l-0.099,0.245l-0.102,0.244l-0.105,0.245l-0.109,0.246l-0.113,0.247l-0.115,0.247l-0.119,0.248l-0.123,0.249l-0.125,0.249l-0.13,0.25l-0.133,0.251l-0.136,0.25l-0.141,0.253l-0.143,0.252l-0.147,0.254l-0.151,0.253l-0.154,0.254l-0.159,0.255l-0.161,0.256l-0.166,0.255l-0.168,0.257l-0.174,0.257l-0.177,0.258l-0.18,0.258l-0.184,0.259l-0.188,0.259l-0.192,0.26l-0.195,0.26l-0.2,0.26l-0.203,0.261l-0.207,0.262l-0.212,0.263l-0.215,0.262l-0.219,0.263l-0.223,0.263l-0.226,0.264l-0.232,0.264l-0.235,0.265l-0.239,0.265l-0.243,0.266l-0.247,0.266l-0.252,0.265l-0.255,0.267l-0.26,0.267l-0.264,0.267l-0.268,0.268l-0.272,0.268l-0.276,0.268l-0.281,0.269l-0.285,0.269l-0.289,0.268l-0.293,0.269l-0.298,0.27l-0.303,0.27l-0.306,0.27l-0.311,0.271l-0.315,0.27l-0.319,0.271l-0.324,0.272l-0.329,0.271l-0.333,0.271l-0.338,0.272l-0.342,0.272l-0.346,0.271l-0.351,0.272l-0.355,0.273l-0.361,0.272l-0.364,0.273l-0.37,0.273l-0.374,0.273l-0.378,0.273l-0.384,0.273l-0.388,0.273l-0.393,0.273l-0.397,0.274l-0.403,0.273l-0.407,0.274l-0.412,0.273l-0.416,0.274l-0.421,0.273l-0.427,0.274l-0.431,0.274l-0.436,0.272l-0.441,0.274l-0.446,0.274l-0.45,0.273l-0.456,0.274l-0.461,0.273l-0.466,0.274l-0.47,0.273l-0.477,0.274l-0.481,0.273l-0.077,0.043l-0.038,0.019l-0.036,0.017l-0.034,0.016l-0.034,0.015l-0.033,0.013l-0.033,0.013l-0.032,0.011l-0.031,0.009l-0.031,0.008l-0.03,0.006l-0.03,0.005l-0.03,0.003l-0.03,0.002l-0.03,0.001l-0.028,-0.001l-0.03,-0.002l-0.03,-0.003l-0.03,-0.005l-0.031,-0.006l-0.031,-0.008l-0.031,-0.009l-0.032,-0.011l-0.033,-0.012l-0.033,-0.014l-0.034,-0.014l-0.034,-0.017l-0.037,-0.017l-0.037,-0.019l-0.078,-0.043l-0.481,-0.273l-0.476,-0.274l-0.47,-0.273l-0.466,-0.274l-0.461,-0.273l-0.456,-0.274l-0.45,-0.273l-0.446,-0.274l-0.441,-0.274l-0.437,-0.272l-0.431,-0.274l-0.426,-0.274l-0.421,-0.273l-0.417,-0.274l-0.412,-0.273l-0.407,-0.274l-0.402,-0.273l-0.398,-0.274l-0.392,-0.273l-0.389,-0.273l-0.383,-0.273l-0.379,-0.273l-0.374,-0.273l-0.369,-0.273l-0.365,-0.273l-0.36,-0.272l-0.355,-0.273l-0.351,-0.272l-0.347,-0.271l-0.342,-0.272l-0.337,-0.272l-0.333,-0.271l-0.329,-0.271l-0.324,-0.272l-0.32,-0.271l-0.315,-0.27l-0.31,-0.271l-0.307,-0.27l-0.303,-0.27l-0.297,-0.27l-0.293,-0.269l-0.289,-0.268l-0.285,-0.269l-0.281,-0.269l-0.277,-0.268l-0.271,-0.268l-0.268,-0.268l-0.265,-0.267l-0.259,-0.267l-0.255,-0.267l-0.252,-0.265l-0.247,-0.266l-0.243,-0.266l-0.24,-0.265l-0.234,-0.265l-0.232,-0.264l-0.227,-0.264l-0.222,-0.263l-0.22,-0.263l-0.215,-0.262l-0.211,-0.263l-0.207,-0.262l-0.203,-0.261l-0.2,-0.26l-0.195,-0.26l-0.192,-0.26l-0.188,-0.259l-0.185,-0.259l-0.18,-0.258l-0.177,-0.258l-0.173,-0.257l-0.169,-0.257l-0.165,-0.255l-0.162,-0.256l-0.158,-0.255l-0.154,-0.254l-0.151,-0.253l-0.148,-0.254l-0.143,-0.252l-0.14,-0.253l-0.136,-0.25l-0.133,-0.251l-0.13,-0.25l-0.126,-0.249l-0.122,-0.249l-0.12,-0.248l-0.115,-0.247l-0.112,-0.247l-0.109,-0.246l-0.106,-0.245l-0.101,-0.244l-0.099,-0.245l-0.096,-0.242l-0.092,-0.243l-0.088,-0.24l-0.086,-0.242l-0.082,-0.24l-0.079,-0.239l-0.075,-0.239l-0.073,-0.237l-0.07,-0.237l-0.066,-0.235l-0.064,-0.236l-0.06,-0.235l-0.056,-0.233l-0.054,-0.233l-0.051,-0.231l-0.048,-0.232l-0.045,-0.229l-0.042,-0.23l-0.038,-0.228l-0.036,-0.227l-0.032,-0.227l-0.03,-0.225l-0.027,-0.225l-0.025,-0.223l-0.021,-0.223l-0.019,-0.222l-0.015,-0.22l-0.013,-0.221l-0.01,-0.218l-0.007,-0.218l-0.005,-0.217l-0.002,-0.216l0.001,-0.214l0.004,-0.215l0.006,-0.212l0.009,-0.211l0.012,-0.212l0.014,-0.209l0.017,-0.208l0.02,-0.208l0.022,-0.207l0.024,-0.205l0.028,-0.204l0.029,-0.202l0.031,-0.202l0.035,-0.202l0.037,-0.199l0.039,-0.198l0.042,-0.197l0.045,-0.196l0.046,-0.195l0.049,-0.194l0.051,-0.192l0.054,-0.192l0.056,-0.19l0.058,-0.188l0.06,-0.188l0.063,-0.187l0.065,-0.186l0.067,-0.183l0.069,-0.182l0.072,-0.182l0.073,-0.18l0.076,-0.178l0.077,-0.178l0.08,-0.176l0.082,-0.175l0.085,-0.174l0.086,-0.172l0.087,-0.171l0.09,-0.169l0.093,-0.168l0.094,-0.167l0.095,-0.165l0.098,-0.164l0.1,-0.162l0.101,-0.161l0.103,-0.16l0.106,-0.158l0.107,-0.157l0.108,-0.156l0.111,-0.154l0.113,-0.152l0.113,-0.151l0.117,-0.149l0.118,-0.148l0.118,-0.147l0.121,-0.144l0.123,-0.144l0.125,-0.142l0.125,-0.141l0.128,-0.138l0.128,-0.138l0.131,-0.135l0.132,-0.135l0.133,-0.132l0.136,-0.13l0.137,-0.13l0.137,-0.128l0.14,-0.126l0.141,-0.124l0.142,-0.123l0.144,-0.122l0.144,-0.119l0.147,-0.118l0.148,-0.116l0.149,-0.115l0.15,-0.113l0.151,-0.111l0.153,-0.109l0.155,-0.107l0.154,-0.107l0.157,-0.104l0.157,-0.103l0.16,-0.101l0.16,-0.099l0.16,-0.097l0.163,-0.095l0.162,-0.094l0.165,-0.092l0.165,-0.09l0.167,-0.088l0.166,-0.087l0.169,-0.084l0.17,-0.083l0.169,-0.081l0.172,-0.078l0.171,-0.078l0.174,-0.075l0.173,-0.074l0.175,-0.072l0.175,-0.069l0.177,-0.068l0.176,-0.066l0.178,-0.063l0.178,-0.062l0.18,-0.06l0.18,-0.058l0.181,-0.056l0.181,-0.055l0.182,-0.051l0.184,-0.051l0.182,-0.047l0.185,-0.047l0.184,-0.044l0.185,-0.042l0.185,-0.04l0.187,-0.038l0.186,-0.036l0.188,-0.033l0.187,-0.033l0.188,-0.029l0.188,-0.027l0.19,-0.025l0.188,-0.025l0.191,-0.021l0.189,-0.019l0.191,-0.016l0.19,-0.016l0.19,-0.013l0.192,-0.01l0.191,-0.008l0.192,-0.006l0.192,-0.004l0.18,-0.002l0.18,0l0.181,0.002l0.181,0.004l0.181,0.006l0.181,0.008l0.18,0.01l0.182,0.012l0.18,0.015l0.182,0.016l0.18,0.018l0.182,0.019l0.181,0.022l0.181,0.025l0.181,0.026l0.181,0.028l0.18,0.031l0.182,0.031l0.18,0.034l0.181,0.037l0.18,0.039l0.181,0.041l0.179,0.042l0.181,0.045l0.179,0.047l0.18,0.049l0.179,0.051l0.179,0.053l0.178,0.055l0.179,0.058l0.178,0.06l0.178,0.061l0.178,0.065l0.177,0.066l0.177,0.068l0.176,0.071l0.177,0.073l0.175,0.075l0.176,0.077l0.174,0.079l0.175,0.082l0.173,0.084l0.174,0.086l0.172,0.088l0.173,0.091l0.172,0.093l0.171,0.095l0.172,0.097l0.169,0.1l0.17,0.102l0.169,0.104l0.169,0.108l0.167,0.109l0.167,0.111l0.166,0.113l0.166,0.116l0.166,0.119l0.163,0.12l0.164,0.123l0.163,0.126l0.162,0.127l0.161,0.13l0.161,0.133l0.159,0.135l0.16,-0.135l0.161,-0.133l0.16,-0.13l0.163,-0.127l0.162,-0.126l0.164,-0.123l0.164,-0.12l0.165,-0.119l0.166,-0.116l0.166,-0.113l0.168,-0.111l0.167,-0.109l0.169,-0.108l0.168,-0.104l0.17,-0.102l0.17,-0.1l0.171,-0.097l0.172,-0.095l0.171,-0.093l0.173,-0.091l0.173,-0.088l0.173,-0.086l0.174,-0.084l0.175,-0.082l0.174,-0.079l0.176,-0.077l0.175,-0.075l0.176,-0.073l0.176,-0.071l0.178,-0.068l0.176,-0.066l0.178,-0.065l0.178,-0.061l0.178,-0.06l0.179,-0.058l0.179,-0.055l0.179,-0.053l0.179,-0.051l0.18,-0.049l0.179,-0.047l0.18,-0.045l0.18,-0.042l0.181,-0.041l0.18,-0.039l0.181,-0.037l0.18,-0.034l0.181,-0.031l0.18,-0.031l0.182,-0.028l0.18,-0.026l0.182,-0.025l0.181,-0.022l0.181,-0.019l0.181,-0.018l0.181,-0.016l0.181,-0.015l0.181,-0.012l0.181,-0.01l0.181,-0.008l0.18,-0.006l0.181,-0.004l0.181,-0.002l0.18,0l0.181,0.002Zm-22.345,4.043l-0.147,0.003l-0.147,0.005l-0.147,0.006l-0.146,0.008l-0.147,0.01l-0.145,0.011l-0.147,0.013l-0.146,0.015l-0.145,0.017l-0.146,0.018l-0.144,0.019l-0.145,0.021l-0.145,0.022l-0.144,0.026l-0.144,0.025l-0.143,0.028l-0.143,0.029l-0.144,0.031l-0.141,0.032l-0.143,0.034l-0.142,0.035l-0.14,0.037l-0.141,0.039l-0.14,0.04l-0.139,0.042l-0.14,0.043l-0.138,0.045l-0.138,0.046l-0.138,0.048l-0.137,0.048l-0.136,0.052l-0.136,0.051l-0.134,0.054l-0.135,0.055l-0.133,0.056l-0.133,0.059l-0.133,0.058l-0.131,0.061l-0.131,0.063l-0.13,0.063l-0.129,0.065l-0.128,0.067l-0.128,0.068l-0.126,0.068l-0.126,0.071l-0.126,0.071l-0.123,0.074l-0.124,0.073l-0.122,0.076l-0.121,0.077l-0.12,0.079l-0.12,0.079l-0.118,0.082l-0.117,0.082l-0.117,0.082l-0.115,0.085l-0.114,0.086l-0.114,0.087l-0.112,0.088l-0.11,0.089l-0.111,0.091l-0.109,0.092l-0.106,0.093l-0.107,0.094l-0.105,0.095l-0.105,0.096l-0.102,0.098l-0.102,0.098l-0.101,0.1l-0.099,0.1l-0.098,0.103l-0.097,0.103l-0.095,0.104l-0.094,0.105l-0.093,0.106l-0.092,0.107l-0.09,0.108l-0.088,0.11l-0.088,0.11l-0.087,0.111l-0.085,0.112l-0.083,0.113l-0.082,0.115l-0.081,0.115l-0.079,0.115l-0.078,0.117l-0.076,0.119l-0.075,0.119l-0.074,0.12l-0.072,0.121l-0.071,0.122l-0.07,0.123l-0.067,0.124l-0.066,0.124l-0.065,0.126l-0.064,0.127l-0.061,0.127l-0.06,0.128l-0.059,0.13l-0.057,0.13l-0.056,0.132l-0.054,0.132l-0.052,0.133l-0.052,0.134l-0.048,0.135l-0.048,0.137l-0.046,0.136l-0.044,0.139l-0.043,0.138l-0.041,0.141l-0.04,0.14l-0.038,0.142l-0.036,0.142l-0.034,0.145l-0.032,0.145l-0.031,0.145l-0.029,0.148l-0.028,0.147l-0.026,0.149l-0.023,0.15l-0.023,0.151l-0.02,0.152l-0.018,0.153l-0.017,0.154l-0.014,0.156l-0.013,0.156l-0.011,0.157l-0.008,0.159l-0.007,0.16l-0.005,0.16l-0.003,0.162l0,0.164l0.001,0.165l0.003,0.164l0.006,0.167l0.008,0.168l0.009,0.169l0.012,0.17l0.015,0.171l0.016,0.172l0.019,0.174l0.021,0.175l0.024,0.176l0.026,0.178l0.028,0.179l0.03,0.179l0.033,0.182l0.036,0.182l0.037,0.183l0.041,0.185l0.043,0.186l0.046,0.187l0.048,0.189l0.051,0.19l0.054,0.19l0.056,0.193l0.059,0.193l0.062,0.195l0.065,0.196l0.068,0.197l0.07,0.199l0.074,0.199l0.075,0.201l0.08,0.202l0.082,0.203l0.086,0.204l0.087,0.207l0.092,0.207l0.095,0.208l0.098,0.209l0.101,0.211l0.104,0.211l0.108,0.212l0.111,0.215l0.113,0.215l0.118,0.216l0.121,0.217l0.124,0.218l0.128,0.22l0.131,0.221l0.134,0.221l0.139,0.222l0.141,0.225l0.145,0.224l0.15,0.226l0.152,0.227l0.156,0.228l0.159,0.228l0.164,0.231l0.168,0.23l0.171,0.232l0.175,0.232l0.178,0.234l0.183,0.234l0.186,0.236l0.191,0.236l0.194,0.237l0.199,0.238l0.201,0.239l0.206,0.239l0.211,0.241l0.214,0.241l0.219,0.242l0.222,0.243l0.227,0.244l0.23,0.243l0.235,0.246l0.239,0.245l0.243,0.247l0.247,0.247l0.253,0.247l0.256,0.249l0.26,0.249l0.265,0.25l0.269,0.25l0.273,0.251l0.277,0.252l0.283,0.251l0.287,0.253l0.29,0.254l0.296,0.254l0.301,0.253l0.304,0.255l0.309,0.256l0.313,0.256l0.318,0.255l0.323,0.257l0.327,0.257l0.333,0.258l0.337,0.257l0.341,0.259l0.346,0.259l0.351,0.259l0.356,0.26l0.36,0.259l0.365,0.26l0.37,0.26l0.375,0.261l0.38,0.262l0.384,0.261l0.389,0.261l0.395,0.262l0.399,0.262l0.404,0.262l0.409,0.263l0.414,0.262l0.418,0.263l0.425,0.263l0.429,0.264l0.434,0.263l0.439,0.264l0.445,0.264l0.414,0.243l0.415,-0.243l0.444,-0.264l0.44,-0.264l0.434,-0.263l0.429,-0.264l0.424,-0.263l0.418,-0.263l0.414,-0.262l0.41,-0.263l0.404,-0.262l0.399,-0.262l0.394,-0.262l0.39,-0.261l0.384,-0.261l0.38,-0.262l0.374,-0.261l0.37,-0.26l0.365,-0.26l0.361,-0.259l0.355,-0.26l0.351,-0.259l0.346,-0.259l0.341,-0.259l0.337,-0.257l0.333,-0.258l0.327,-0.257l0.323,-0.257l0.318,-0.255l0.314,-0.256l0.309,-0.256l0.304,-0.255l0.301,-0.253l0.295,-0.254l0.291,-0.254l0.286,-0.253l0.283,-0.251l0.278,-0.252l0.273,-0.251l0.269,-0.25l0.265,-0.25l0.26,-0.249l0.256,-0.249l0.252,-0.247l0.247,-0.247l0.243,-0.247l0.24,-0.245l0.234,-0.246l0.231,-0.243l0.227,-0.244l0.222,-0.243l0.219,-0.242l0.214,-0.241l0.211,-0.241l0.205,-0.239l0.202,-0.239l0.199,-0.238l0.193,-0.237l0.191,-0.236l0.186,-0.236l0.183,-0.234l0.179,-0.234l0.175,-0.232l0.17,-0.232l0.168,-0.23l0.164,-0.231l0.159,-0.228l0.157,-0.228l0.152,-0.227l0.149,-0.226l0.146,-0.224l0.141,-0.225l0.138,-0.222l0.134,-0.221l0.132,-0.221l0.128,-0.22l0.123,-0.218l0.122,-0.217l0.117,-0.216l0.114,-0.215l0.111,-0.215l0.108,-0.212l0.104,-0.211l0.1,-0.211l0.098,-0.209l0.095,-0.208l0.092,-0.207l0.088,-0.206l0.085,-0.205l0.083,-0.203l0.079,-0.202l0.076,-0.201l0.073,-0.199l0.071,-0.199l0.068,-0.197l0.065,-0.196l0.062,-0.195l0.058,-0.193l0.057,-0.192l0.053,-0.191l0.052,-0.19l0.048,-0.189l0.046,-0.187l0.043,-0.186l0.041,-0.185l0.037,-0.183l0.035,-0.182l0.033,-0.182l0.031,-0.179l0.028,-0.179l0.026,-0.178l0.023,-0.176l0.021,-0.175l0.019,-0.174l0.017,-0.172l0.014,-0.171l0.012,-0.17l0.01,-0.169l0.008,-0.168l0.005,-0.167l0.004,-0.164l0.001,-0.165l-0.001,-0.164l-0.002,-0.161l-0.005,-0.161l-0.007,-0.16l-0.009,-0.159l-0.011,-0.157l-0.012,-0.156l-0.015,-0.156l-0.016,-0.154l-0.019,-0.153l-0.02,-0.152l-0.022,-0.151l-0.024,-0.15l-0.025,-0.149l-0.028,-0.147l-0.029,-0.148l-0.031,-0.145l-0.033,-0.145l-0.033,-0.145l-0.037,-0.142l-0.037,-0.142l-0.04,-0.14l-0.041,-0.141l-0.043,-0.138l-0.045,-0.139l-0.046,-0.136l-0.048,-0.137l-0.048,-0.135l-0.051,-0.134l-0.053,-0.133l-0.054,-0.132l-0.055,-0.132l-0.058,-0.13l-0.059,-0.13l-0.059,-0.128l-0.062,-0.127l-0.063,-0.127l-0.065,-0.126l-0.067,-0.124l-0.067,-0.124l-0.069,-0.123l-0.071,-0.122l-0.072,-0.121l-0.074,-0.12l-0.075,-0.119l-0.076,-0.119l-0.078,-0.117l-0.08,-0.116l-0.081,-0.114l-0.081,-0.115l-0.084,-0.113l-0.085,-0.112l-0.086,-0.111l-0.088,-0.11l-0.088,-0.11l-0.091,-0.108l-0.092,-0.107l-0.093,-0.106l-0.093,-0.105l-0.096,-0.104l-0.097,-0.103l-0.098,-0.103l-0.098,-0.1l-0.101,-0.1l-0.102,-0.098l-0.102,-0.098l-0.105,-0.096l-0.105,-0.095l-0.107,-0.094l-0.107,-0.093l-0.109,-0.092l-0.11,-0.091l-0.11,-0.089l-0.113,-0.088l-0.113,-0.087l-0.115,-0.086l-0.114,-0.085l-0.117,-0.082l-0.118,-0.082l-0.117,-0.082l-0.12,-0.079l-0.121,-0.079l-0.12,-0.077l-0.123,-0.076l-0.123,-0.073l-0.124,-0.074l-0.125,-0.071l-0.126,-0.071l-0.126,-0.068l-0.128,-0.068l-0.129,-0.067l-0.129,-0.065l-0.13,-0.063l-0.131,-0.063l-0.131,-0.061l-0.132,-0.058l-0.133,-0.059l-0.133,-0.056l-0.135,-0.055l-0.135,-0.054l-0.135,-0.051l-0.137,-0.052l-0.136,-0.048l-0.138,-0.048l-0.138,-0.046l-0.138,-0.045l-0.14,-0.043l-0.14,-0.042l-0.14,-0.04l-0.141,-0.039l-0.14,-0.037l-0.142,-0.035l-0.142,-0.034l-0.142,-0.032l-0.143,-0.031l-0.144,-0.029l-0.142,-0.028l-0.145,-0.025l-0.143,-0.026l-0.145,-0.022l-0.145,-0.021l-0.145,-0.019l-0.146,-0.018l-0.144,-0.017l-0.147,-0.015l-0.146,-0.013l-0.146,-0.011l-0.146,-0.01l-0.146,-0.008l-0.147,-0.006l-0.147,-0.005l-0.147,-0.003l-0.138,-0.001l-0.138,0l-0.137,0.002l-0.139,0.003l-0.137,0.004l-0.139,0.007l-0.138,0.007l-0.137,0.009l-0.139,0.011l-0.138,0.012l-0.138,0.013l-0.138,0.016l-0.137,0.017l-0.139,0.018l-0.138,0.02l-0.137,0.021l-0.138,0.024l-0.138,0.024l-0.137,0.026l-0.137,0.027l-0.138,0.03l-0.136,0.031l-0.138,0.032l-0.136,0.034l-0.137,0.036l-0.136,0.038l-0.136,0.038l-0.136,0.04l-0.137,0.043l-0.135,0.043l-0.135,0.046l-0.136,0.046l-0.134,0.05l-0.136,0.049l-0.133,0.053l-0.135,0.054l-0.135,0.055l-0.133,0.057l-0.134,0.059l-0.133,0.061l-0.133,0.062l-0.133,0.063l-0.133,0.067l-0.131,0.067l-0.133,0.07l-0.131,0.07l-0.131,0.074l-0.131,0.075l-0.131,0.076l-0.13,0.079l-0.13,0.08l-0.13,0.082l-0.129,0.084l-0.13,0.086l-0.128,0.088l-0.128,0.089l-0.128,0.092l-0.127,0.094l-0.128,0.095l-0.127,0.098l-0.125,0.099l-0.127,0.102l-0.126,0.105l-2.697,2.28l-2.697,-2.28l-0.126,-0.105l-0.126,-0.102l-0.126,-0.099l-0.127,-0.098l-0.127,-0.095l-0.127,-0.094l-0.128,-0.092l-0.129,-0.089l-0.128,-0.088l-0.129,-0.086l-0.13,-0.084l-0.129,-0.082l-0.13,-0.08l-0.131,-0.079l-0.13,-0.076l-0.131,-0.075l-0.131,-0.074l-0.132,-0.07l-0.132,-0.07l-0.132,-0.067l-0.132,-0.066l-0.134,-0.064l-0.132,-0.063l-0.134,-0.06l-0.134,-0.059l-0.133,-0.057l-0.134,-0.055l-0.135,-0.054l-0.134,-0.053l-0.135,-0.049l-0.134,-0.05l-0.136,-0.046l-0.136,-0.046l-0.135,-0.043l-0.136,-0.043l-0.136,-0.04l-0.136,-0.038l-0.137,-0.038l-0.137,-0.036l-0.136,-0.034l-0.137,-0.032l-0.137,-0.031l-0.137,-0.03l-0.138,-0.027l-0.137,-0.026l-0.137,-0.024l-0.138,-0.024l-0.138,-0.021l-0.138,-0.02l-0.138,-0.018l-0.137,-0.017l-0.139,-0.016l-0.137,-0.013l-0.138,-0.012l-0.139,-0.011l-0.137,-0.009l-0.139,-0.007l-0.138,-0.007l-0.138,-0.004l-0.138,-0.003l-0.137,-0.002l-0.139,0l-0.137,0.001l0,0Z" style="fill:#3e3e3e;"/></svg>